<?xml version="1.0" encoding="UTF-8"?>
<svg width="2420px" height="2419px" viewBox="0 0 2420 2419" version="1.1" xmlns="http://www.w3.org/2000/svg" xmlns:xlink="http://www.w3.org/1999/xlink" xmlns:sketch="http://www.bohemiancoding.com/sketch/ns">
    <!-- Generator: Sketch 3.5 (25232) - http://www.bohemiancoding.com/sketch -->
    <title>Untitled</title>
    <desc>Created with Sketch.</desc>
    <defs></defs>
    <g id="Page-1" stroke="none" stroke-width="1" fill="none" fill-rule="evenodd" sketch:type="MSPage">
        <rect id="Rectangle-1" fill="#FFFFFF" sketch:type="MSShapeGroup" x="-290" y="-55" width="3001" height="2529"></rect>
        <path d="M522.973011,1648.91915 C423.313595,1781.11445 356.540487,1915.07521 317.749596,2027.31673 C120.421546,1812.01381 0,1525.06988 0,1210 C0,541.735453 541.735453,0 1210,0 C1878.26455,0 2420,541.735453 2420,1210 C2420,1856.11726 1913.57737,2383.95318 1276.00982,2418.23005 C1338.76736,1765.66475 1713.75,1052 1713.75,1052 C1447.66429,1062.23221 1224.50677,1125.05257 1039.50195,1217.59216 C818.097495,973.843592 759.624998,511.000004 759.625008,511 C137.782054,1036.6868 355.96387,1457.33195 522.97305,1648.91917 Z" id="Oval-1" fill="#0A6DD9" sketch:type="MSShapeGroup"></path>
    </g>
</svg>